<svg version="1.1" id="Layer_1" xmlns="http://www.w3.org/2000/svg" xmlns:xlink="http://www.w3.org/1999/xlink" x="0px" y="0px"
	 width="100%" viewBox="0 0 736 976" enable-background="new 0 0 736 976" xml:space="preserve">
<path fill="#currentColor" opacity="1.000000" stroke="none" 
	d="
M339.977631,610.578125 
	C340.529968,598.514099 338.790588,586.982727 338.740479,575.393860 
	C338.703583,566.862061 343.270660,559.383240 344.590607,551.240234 
	C347.248291,534.844482 348.548065,518.369507 344.398163,501.880829 
	C343.059723,496.562897 342.512299,491.258209 338.704620,486.762085 
	C336.375488,484.011932 335.413727,480.200806 335.778748,476.391541 
	C336.085175,473.193420 334.449463,471.557312 331.562317,471.434937 
	C322.279663,471.041382 315.359802,466.017792 308.714172,460.285736 
	C307.215240,458.992828 305.565094,457.379486 303.762634,457.016998 
	C294.075226,455.068878 293.355774,447.368164 292.879028,439.937408 
	C292.325073,431.303131 292.515259,422.613617 293.383942,413.976562 
	C293.986847,407.982117 293.270569,405.520416 289.378265,401.606079 
	C286.470276,403.427673 285.304474,406.667450 283.413635,409.286133 
	C281.808350,411.509338 280.296844,413.633301 277.081512,413.335480 
	C273.804352,413.031952 272.788300,410.506012 271.755981,408.046906 
	C269.126862,401.783966 266.574341,395.488831 263.881683,388.940399 
	C261.714905,390.096710 261.222687,391.919159 260.476105,393.451538 
	C256.025879,402.585724 251.648682,411.755524 247.253555,420.916473 
	C245.942993,423.648102 244.758118,426.575989 241.024429,426.533325 
	C237.045883,426.487915 235.801910,423.353882 234.673981,420.391876 
	C228.214798,403.429810 222.885544,386.082336 216.791733,367.553986 
	C214.836105,378.848083 213.085938,388.969543 211.330688,399.090149 
	C206.385345,427.604523 201.427933,456.116821 196.504089,484.634888 
	C195.899918,488.134186 195.011154,491.444946 190.585144,491.246155 
	C186.457108,491.060730 185.660782,487.729889 185.287476,484.496033 
	C183.072754,465.310608 180.934158,446.116394 178.784012,426.923553 
	C175.891830,401.107147 173.007980,375.289825 170.129364,349.471893 
	C168.636139,336.079285 167.170776,322.683594 165.668320,309.292023 
	C165.470215,307.526215 165.126480,305.776733 164.653519,302.769012 
	C158.206879,341.625214 151.970795,379.191345 145.746094,416.759338 
	C145.038757,421.028442 144.439102,425.315674 143.707108,429.580353 
	C143.197540,432.549164 142.081726,435.176788 138.510956,435.286255 
	C134.795670,435.400208 133.260315,432.971222 132.600296,429.716187 
	C129.654694,415.188934 126.704628,400.662567 123.758240,386.135468 
	C121.707916,376.026367 119.660957,365.916565 116.671478,355.695190 
	C114.893158,364.131897 113.106926,372.566956 111.339447,381.005920 
	C110.248642,386.214050 109.207306,391.432556 108.104378,396.638062 
	C107.304695,400.412354 105.030212,402.362030 101.070938,402.347260 
	C90.238045,402.306885 79.404922,402.329010 68.571892,402.325073 
	C64.940598,402.323730 62.059662,400.866364 62.077747,396.999817 
	C62.095772,393.147858 64.971344,391.699371 68.606812,391.702271 
	C76.273293,391.708344 83.965424,391.317169 91.597572,391.827972 
	C96.998993,392.189484 98.720665,389.893707 99.677864,385.080719 
	C103.470947,366.008148 107.623497,347.007355 111.527603,327.956329 
	C112.212608,324.613617 112.934761,321.679596 117.150925,321.674561 
	C121.352966,321.669556 122.377777,324.835846 123.020729,327.968506 
	C127.168144,348.175995 131.193939,368.408417 135.273712,388.629852 
	C135.962204,392.042297 136.718918,395.441010 137.667480,399.894836 
	C142.467743,370.684723 147.095795,342.488953 151.736618,314.295319 
	C154.462158,297.737213 157.203064,281.181610 159.956985,264.628204 
	C160.120239,263.646851 160.461960,262.695282 160.718872,261.729370 
	C161.458267,258.949524 163.153183,257.445007 166.140747,257.665894 
	C169.324600,257.901276 170.893036,259.764343 171.239227,262.797760 
	C172.916626,277.495544 174.573807,292.195648 176.250534,306.893524 
	C179.134598,332.174683 182.058609,357.451355 184.907104,382.736542 
	C187.031372,401.593048 189.056656,420.460663 191.148315,439.320862 
	C191.312836,440.804352 191.652512,442.268372 192.550446,443.820190 
	C194.567932,432.596497 196.627411,421.380188 198.593872,410.147552 
	C202.290421,389.032654 205.975784,367.915527 209.555008,346.780579 
	C210.128220,343.395874 211.037521,340.329651 214.866379,339.960022 
	C218.900635,339.570618 220.102295,342.895905 221.118057,345.951263 
	C227.157745,364.118195 233.140839,382.303894 239.166489,400.475494 
	C239.774002,402.307617 240.075424,404.329956 242.217468,406.027008 
	C246.480865,397.370117 250.647308,388.907104 254.816925,380.445679 
	C255.995224,378.054504 257.244232,375.695923 258.349182,373.271515 
	C259.486206,370.776733 261.214264,369.130402 264.058655,369.198242 
	C266.993164,369.268250 268.386688,371.311584 269.392700,373.758759 
	C271.925140,379.919006 274.482910,386.068878 277.031799,392.222351 
	C277.462799,393.262756 277.576080,394.531311 279.255981,395.012451 
	C286.859924,384.341461 297.142059,384.510071 308.321564,388.304657 
	C309.999481,388.874176 311.928040,388.853577 313.740906,388.855530 
	C354.406586,388.899445 395.072357,388.890381 435.737976,388.955078 
	C439.296570,388.960724 442.608795,387.820770 446.053284,387.329468 
	C447.694763,387.095306 449.602081,386.257904 450.942535,386.799225 
	C457.342712,389.384033 457.948425,385.130402 459.028595,380.686371 
	C463.114410,363.876617 467.412415,347.118561 471.559082,330.323395 
	C472.367310,327.049805 473.464630,323.896606 477.360138,323.902954 
	C481.572510,323.909821 482.561523,327.349945 483.282776,330.765808 
	C487.576294,351.099304 491.885010,371.429626 496.216339,391.755096 
	C496.545502,393.299683 497.090027,394.798340 498.407990,396.307465 
	C500.179474,386.042358 501.966675,375.779907 503.719604,365.511597 
	C509.426239,332.083069 515.117371,298.651947 520.831238,265.224640 
	C521.026855,264.080200 521.385010,262.961914 521.694458,261.838867 
	C522.449219,259.099762 524.133667,257.555786 527.099121,257.669281 
	C530.400879,257.795593 531.855408,259.910065 532.199158,262.808502 
	C533.627930,274.855072 534.924133,286.917267 536.305481,298.969543 
	C538.500610,318.121948 540.763977,337.266632 542.925720,356.422791 
	C545.088501,375.589020 547.140991,394.767700 549.282959,413.936310 
	C550.442017,424.308899 551.686707,434.671906 553.700745,445.014008 
	C559.357544,413.956848 565.012634,382.899353 570.676331,351.843445 
	C570.944580,350.372528 571.423767,348.928833 571.570068,347.449280 
	C571.887573,344.238342 573.283691,342.015594 576.698242,341.747162 
	C580.196533,341.472198 581.659973,343.848145 582.674866,346.708893 
	C585.513184,354.709595 588.397339,362.694031 591.226074,370.698090 
	C594.554932,380.117432 597.831177,389.555359 601.167114,398.972168 
	C601.600525,400.195648 602.253662,401.341309 603.078613,403.109344 
	C606.669922,398.305634 608.632812,393.215179 611.175110,388.468353 
	C613.219727,384.650696 614.997742,380.681854 617.187744,376.952606 
	C620.132690,371.937622 624.761414,371.939819 627.644470,376.956390 
	C630.381531,381.719025 632.797546,386.665405 635.404358,391.504211 
	C636.088806,392.774628 636.463074,394.331055 638.605530,395.193695 
	C640.869385,388.548950 646.472168,388.806305 652.103821,388.918701 
	C657.768066,389.031738 663.436646,388.908173 669.102722,388.954102 
	C672.877441,388.984711 675.957947,390.534058 675.991699,394.584595 
	C676.026611,398.771667 672.781982,400.042938 669.062073,400.068787 
	C663.895874,400.104706 658.718323,400.280731 653.566528,400.005219 
	C649.742371,399.800690 647.138184,401.039856 645.590332,404.552979 
	C645.054749,405.768585 644.311829,406.891083 643.709778,408.079498 
	C642.447083,410.572052 640.807739,412.725555 637.757568,412.746277 
	C634.624634,412.767578 633.209045,410.376007 631.944397,407.945984 
	C629.040588,402.366455 626.125977,396.792572 622.985291,390.774933 
	C619.609558,394.150482 618.466492,398.016602 616.664978,401.462769 
	C613.656006,407.218689 610.812378,413.060760 607.845215,418.838867 
	C606.593323,421.276581 605.100281,423.497589 601.835144,423.252838 
	C598.594849,423.009979 597.416565,420.643127 596.497070,418.042969 
	C590.780945,401.880524 585.076660,385.713898 578.500793,369.468994 
	C576.800537,378.469940 575.026001,387.457611 573.413696,396.474274 
	C568.256836,425.313599 563.161804,454.163940 558.034424,483.008514 
	C557.830444,484.156067 557.553467,485.291443 557.286621,486.426819 
	C556.606567,489.320435 555.029114,491.322998 551.828552,491.247162 
	C548.644348,491.171753 547.013489,489.199127 546.637268,486.197235 
	C545.373657,476.116455 544.095703,466.036530 542.959595,455.940918 
	C539.888916,428.653656 536.888000,401.358521 533.860291,374.066437 
	C531.239380,350.440887 528.619629,326.815247 525.275452,303.181885 
	C518.270874,344.634430 511.253754,386.084900 504.284546,427.543427 
	C503.695892,431.045258 502.822235,434.445557 498.640533,434.619507 
	C494.346313,434.798096 493.332458,431.283997 492.624756,427.896606 
	C487.962524,405.580811 483.324921,383.259827 478.664520,360.943634 
	C478.292633,359.162842 477.809509,357.405273 477.170410,354.785736 
	C474.831390,359.076080 474.489471,363.190308 473.467255,367.030640 
	C471.156189,375.713013 469.115875,384.468719 467.050171,393.214600 
	C466.126465,397.125610 464.383545,399.655487 459.881470,400.236694 
	C455.591370,400.790497 454.118134,404.333557 454.103485,408.319458 
	C454.079590,414.818298 454.066895,421.324371 454.339996,427.815216 
	C454.650818,435.203186 453.575134,442.423340 452.475800,449.678467 
	C452.024017,452.660065 450.704803,454.553528 447.925659,455.617340 
	C443.200958,457.426025 439.194489,460.369263 435.281921,463.532654 
	C430.254089,467.597748 424.525879,470.106171 417.947235,470.471954 
	C414.263336,470.676788 411.794861,471.843750 411.920258,476.465118 
	C412.038757,480.832764 410.594513,485.288544 407.677856,488.509094 
	C404.282898,492.257782 403.170929,496.395905 402.806915,501.164856 
	C402.516266,504.972534 401.859894,508.815094 400.312836,512.346130 
	C395.466736,523.407104 398.911316,534.640076 399.322784,545.832886 
	C399.529022,551.442932 400.947723,556.657043 403.308533,561.597412 
	C407.940887,571.291138 405.819641,581.609070 406.318390,591.658936 
	C406.656616,598.475037 406.317352,605.308777 408.085846,612.003052 
	C408.681976,614.259460 408.545959,616.434937 405.590759,617.005981 
	C403.535645,617.403076 403.048859,618.993835 402.749664,620.658875 
	C402.426453,622.457458 401.991425,624.305542 402.102417,626.101318 
	C402.891327,638.864136 397.078247,648.716919 388.552399,657.420593 
	C387.852722,658.135010 387.167236,658.863281 386.467773,659.577942 
	C380.079773,666.104614 380.325867,671.788757 385.101074,679.508545 
	C389.501892,686.623047 395.588959,692.042114 400.897064,698.229492 
	C403.518066,701.284668 403.200195,703.476929 400.039703,705.594971 
	C397.968750,706.982849 396.044586,708.739441 393.781952,709.662170 
	C388.137390,711.963867 386.199402,718.269714 380.919708,720.979309 
	C376.893372,723.045715 373.028839,725.276367 368.348785,725.430359 
	C364.051392,725.571716 362.865845,724.053284 364.568542,720.044495 
	C365.669373,717.452698 367.039551,714.950317 368.525513,712.554565 
	C369.868195,710.389893 369.607666,708.939697 367.399414,707.628113 
	C364.822937,706.097595 362.334656,704.414673 359.845459,702.742249 
	C356.456512,700.465332 353.639801,697.972351 356.285797,693.343628 
	C357.156677,691.820129 356.572205,690.351746 355.309174,689.320923 
	C352.243286,686.818604 352.473236,683.103394 351.671967,679.778442 
	C351.296478,678.220459 351.553833,676.718567 353.275116,676.017700 
	C357.034027,674.487061 358.336273,670.393433 361.517456,668.216248 
	C363.162964,667.090088 362.239166,665.540283 361.315277,664.275696 
	C357.105103,658.513000 354.775421,651.976624 353.247192,645.078369 
	C352.929443,643.643860 352.366150,642.155396 351.528717,640.964050 
	C348.516174,636.678223 347.281677,632.019592 347.844269,626.813171 
	C348.111572,624.339233 347.402374,621.266907 345.162476,620.864624 
	C338.739471,619.711060 338.408966,616.035156 339.977631,610.578125 
M307.846680,425.649170 
	C309.455719,429.483948 311.494446,433.205322 312.545624,437.187378 
	C313.482819,440.737885 315.432861,442.009399 318.737305,442.382935 
	C322.592529,442.818787 326.321014,444.080566 329.421021,446.316620 
	C333.163055,449.015839 337.113983,449.773254 341.589508,449.735657 
	C349.568359,449.668518 356.666138,451.826721 361.568268,460.097382 
	C361.495941,455.983673 362.709198,452.791473 358.879578,450.518066 
	C357.038391,449.425079 357.239990,446.759430 358.035919,444.972992 
	C359.222687,442.309174 359.395111,439.552917 359.901215,436.783905 
	C361.799286,426.399384 373.162354,420.344513 380.907959,425.480316 
	C386.216705,429.000397 389.518616,433.704224 389.337250,440.395660 
	C389.297455,441.864197 389.236847,443.577301 389.907196,444.773590 
	C391.853546,448.246979 391.138397,450.370819 387.791962,452.610443 
	C383.414795,455.539856 383.026245,457.251129 384.324036,461.010376 
	C384.903625,460.645935 385.613281,460.424896 385.968475,459.942719 
	C391.785919,452.046051 400.123077,449.954712 409.282593,449.783142 
	C411.332489,449.744781 413.254303,449.421692 414.950928,448.211395 
	C419.154724,445.212646 423.890076,443.901703 428.998474,443.698090 
	C431.039215,443.616760 432.818481,443.259033 433.845551,440.979126 
	C438.379486,430.914551 442.301422,420.840271 441.019989,409.357788 
	C440.251495,402.471802 438.453583,400.119843 431.578125,400.115479 
	C401.779388,400.096558 371.980682,400.111603 342.181946,400.109100 
	C332.027191,400.108246 321.871948,400.143555 311.717926,400.052795 
	C308.518219,400.024200 305.793427,400.806152 305.569122,404.347260 
	C305.129730,411.283966 304.152435,418.340759 307.846680,425.649170 
M376.121368,594.090576 
	C375.977631,593.457397 375.833893,592.824158 375.748199,592.446716 
	C371.492310,608.671082 363.696686,625.004639 373.796295,642.500366 
	C378.546387,637.172974 382.536011,632.697388 381.089142,624.846252 
	C380.172821,619.873901 377.257935,615.428162 377.807831,610.029968 
	C378.326904,604.934692 377.532928,599.770996 376.121368,594.090576 
z"/>
</svg>
